<svg xmlns="http://www.w3.org/2000/svg" xmlns:xlink="http://www.w3.org/1999/xlink" width="500" zoomAndPan="magnify" viewBox="0 0 375 374.999991" height="500" preserveAspectRatio="xMidYMid meet" version="1.0"><defs><g/></defs><rect x="-37.5" width="450" fill="#ffffff" y="-37.499999" height="449.999989" fill-opacity="1"/><rect x="-37.5" width="450" fill="#ffffff" y="-37.499999" height="449.999989" fill-opacity="1"/><g fill="#000000" fill-opacity="1"><g transform="translate(95.772659, 283.082537)"><g><path d="M 38.75 -6.0625 C 38.75 -3.78125 37.910156 -1.757812 36.234375 0 C 34.566406 1.757812 32.503906 2.640625 30.046875 2.640625 C 27.585938 2.640625 25.476562 1.757812 23.71875 0 C 21.957031 -1.757812 21.078125 -3.78125 21.078125 -6.0625 L 21.078125 -182.390625 C 21.078125 -184.847656 21.957031 -186.910156 23.71875 -188.578125 C 25.476562 -190.242188 27.585938 -191.078125 30.046875 -191.078125 C 32.503906 -191.078125 34.566406 -190.242188 36.234375 -188.578125 C 37.910156 -186.910156 38.75 -184.847656 38.75 -182.390625 Z M 56.40625 -182.390625 C 56.40625 -184.847656 57.28125 -186.910156 59.03125 -188.578125 C 60.789062 -190.242188 62.8125 -191.078125 65.09375 -191.078125 C 67.5625 -191.078125 69.671875 -190.242188 71.421875 -188.578125 C 73.179688 -186.910156 74.0625 -184.847656 74.0625 -182.390625 L 74.0625 -120.71875 L 109.109375 -120.71875 L 109.109375 -182.390625 C 109.109375 -184.847656 109.988281 -186.910156 111.75 -188.578125 C 113.507812 -190.242188 115.617188 -191.078125 118.078125 -191.078125 C 120.535156 -191.078125 122.597656 -190.242188 124.265625 -188.578125 C 125.941406 -186.910156 126.78125 -184.847656 126.78125 -182.390625 L 126.78125 -111.75 C 126.78125 -109.46875 125.941406 -107.445312 124.265625 -105.6875 C 122.597656 -103.925781 120.535156 -103.046875 118.078125 -103.046875 L 65.09375 -103.046875 C 62.8125 -103.046875 60.789062 -103.925781 59.03125 -105.6875 C 57.28125 -107.445312 56.40625 -109.46875 56.40625 -111.75 Z M 144.4375 -182.390625 C 144.4375 -184.847656 145.3125 -186.910156 147.0625 -188.578125 C 148.820312 -190.242188 150.84375 -191.078125 153.125 -191.078125 C 155.582031 -191.078125 157.691406 -190.242188 159.453125 -188.578125 C 161.210938 -186.910156 162.09375 -184.847656 162.09375 -182.390625 L 162.09375 -6.0625 C 162.09375 -3.78125 161.210938 -1.757812 159.453125 0 C 157.691406 1.757812 155.582031 2.640625 153.125 2.640625 C 150.84375 2.640625 148.820312 1.757812 147.0625 0 C 145.3125 -1.757812 144.4375 -3.78125 144.4375 -6.0625 Z M 126.78125 -6.0625 C 126.78125 -3.78125 125.941406 -1.757812 124.265625 0 C 122.597656 1.757812 120.535156 2.640625 118.078125 2.640625 C 115.617188 2.640625 113.507812 1.757812 111.75 0 C 109.988281 -1.757812 109.109375 -3.78125 109.109375 -6.0625 L 109.109375 -67.734375 L 74.0625 -67.734375 L 74.0625 -6.0625 C 74.0625 -3.78125 73.179688 -1.757812 71.421875 0 C 69.671875 1.757812 67.5625 2.640625 65.09375 2.640625 C 62.8125 2.640625 60.789062 1.757812 59.03125 0 C 57.28125 -1.757812 56.40625 -3.78125 56.40625 -6.0625 L 56.40625 -76.703125 C 56.40625 -79.160156 57.28125 -81.222656 59.03125 -82.890625 C 60.789062 -84.554688 62.8125 -85.390625 65.09375 -85.390625 L 118.078125 -85.390625 C 120.535156 -85.390625 122.597656 -84.554688 124.265625 -82.890625 C 125.941406 -81.222656 126.78125 -79.160156 126.78125 -76.703125 Z M 126.78125 -6.0625 "/></g></g></g></svg>