<svg xmlns="http://www.w3.org/2000/svg" xmlns:xlink="http://www.w3.org/1999/xlink" width="500" zoomAndPan="magnify" viewBox="0 0 375 374.999991" height="500" preserveAspectRatio="xMidYMid meet" version="1.0"><defs><g/></defs><g fill="#000000" fill-opacity="1"><g transform="translate(63.199219, 188.249988)"><g><path d="M 58.703125 -70 C 60.171875 -70 61.367188 -69.546875 62.296875 -68.640625 C 63.234375 -67.742188 63.703125 -66.597656 63.703125 -65.203125 L 63.703125 -4.90625 C 63.628906 -3.5 63.125 -2.328125 62.1875 -1.390625 C 61.257812 -0.460938 60.0625 0 58.59375 0 C 57.257812 0 56.109375 -0.460938 55.140625 -1.390625 C 54.179688 -2.328125 53.703125 -3.5 53.703125 -4.90625 L 53.703125 -30.796875 L 18.203125 -30.796875 L 18.203125 -4.90625 C 18.203125 -3.5 17.703125 -2.328125 16.703125 -1.390625 C 15.703125 -0.460938 14.535156 0 13.203125 0 C 11.734375 0 10.546875 -0.460938 9.640625 -1.390625 C 8.742188 -2.328125 8.296875 -3.5 8.296875 -4.90625 L 8.296875 -65.203125 C 8.296875 -66.535156 8.757812 -67.664062 9.6875 -68.59375 C 10.625 -69.53125 11.828125 -70 13.296875 -70 C 14.628906 -70 15.78125 -69.53125 16.75 -68.59375 C 17.71875 -67.664062 18.203125 -66.535156 18.203125 -65.203125 L 18.203125 -40 L 53.703125 -40 L 53.703125 -65.203125 C 53.703125 -66.535156 54.203125 -67.664062 55.203125 -68.59375 C 56.203125 -69.53125 57.367188 -70 58.703125 -70 Z M 58.703125 -70 "/></g></g></g><g fill="#000000" fill-opacity="1"><g transform="translate(135.096446, 188.249988)"><g><path d="M 56.703125 -26.203125 C 56.703125 -21.003906 55.535156 -16.335938 53.203125 -12.203125 C 50.867188 -8.066406 47.679688 -4.832031 43.640625 -2.5 C 39.609375 -0.164062 35.160156 1 30.296875 1 C 25.429688 1 20.984375 -0.164062 16.953125 -2.5 C 12.921875 -4.832031 9.738281 -8.066406 7.40625 -12.203125 C 5.070312 -16.335938 3.90625 -21.003906 3.90625 -26.203125 C 3.90625 -31.398438 5.070312 -36.097656 7.40625 -40.296875 C 9.738281 -44.492188 12.921875 -47.757812 16.953125 -50.09375 C 20.984375 -52.425781 25.429688 -53.59375 30.296875 -53.59375 C 35.160156 -53.59375 39.609375 -52.425781 43.640625 -50.09375 C 47.679688 -47.757812 50.867188 -44.492188 53.203125 -40.296875 C 55.535156 -36.097656 56.703125 -31.398438 56.703125 -26.203125 Z M 47.203125 -26.203125 C 47.203125 -29.796875 46.453125 -33.007812 44.953125 -35.84375 C 43.453125 -38.675781 41.414062 -40.875 38.84375 -42.4375 C 36.28125 -44.007812 33.429688 -44.796875 30.296875 -44.796875 C 27.160156 -44.796875 24.3125 -44.007812 21.75 -42.4375 C 19.1875 -40.875 17.15625 -38.675781 15.65625 -35.84375 C 14.15625 -33.007812 13.40625 -29.796875 13.40625 -26.203125 C 13.40625 -22.671875 14.15625 -19.503906 15.65625 -16.703125 C 17.15625 -13.898438 19.1875 -11.710938 21.75 -10.140625 C 24.3125 -8.578125 27.160156 -7.796875 30.296875 -7.796875 C 33.429688 -7.796875 36.28125 -8.578125 38.84375 -10.140625 C 41.414062 -11.710938 43.453125 -13.898438 44.953125 -16.703125 C 46.453125 -19.503906 47.203125 -22.671875 47.203125 -26.203125 Z M 47.203125 -26.203125 "/></g></g></g><g fill="#000000" fill-opacity="1"><g transform="translate(195.69411, 188.249988)"><g><path d="M 56.703125 -26.203125 C 56.703125 -21.003906 55.535156 -16.335938 53.203125 -12.203125 C 50.867188 -8.066406 47.679688 -4.832031 43.640625 -2.5 C 39.609375 -0.164062 35.160156 1 30.296875 1 C 25.429688 1 20.984375 -0.164062 16.953125 -2.5 C 12.921875 -4.832031 9.738281 -8.066406 7.40625 -12.203125 C 5.070312 -16.335938 3.90625 -21.003906 3.90625 -26.203125 C 3.90625 -31.398438 5.070312 -36.097656 7.40625 -40.296875 C 9.738281 -44.492188 12.921875 -47.757812 16.953125 -50.09375 C 20.984375 -52.425781 25.429688 -53.59375 30.296875 -53.59375 C 35.160156 -53.59375 39.609375 -52.425781 43.640625 -50.09375 C 47.679688 -47.757812 50.867188 -44.492188 53.203125 -40.296875 C 55.535156 -36.097656 56.703125 -31.398438 56.703125 -26.203125 Z M 47.203125 -26.203125 C 47.203125 -29.796875 46.453125 -33.007812 44.953125 -35.84375 C 43.453125 -38.675781 41.414062 -40.875 38.84375 -42.4375 C 36.28125 -44.007812 33.429688 -44.796875 30.296875 -44.796875 C 27.160156 -44.796875 24.3125 -44.007812 21.75 -42.4375 C 19.1875 -40.875 17.15625 -38.675781 15.65625 -35.84375 C 14.15625 -33.007812 13.40625 -29.796875 13.40625 -26.203125 C 13.40625 -22.671875 14.15625 -19.503906 15.65625 -16.703125 C 17.15625 -13.898438 19.1875 -11.710938 21.75 -10.140625 C 24.3125 -8.578125 27.160156 -7.796875 30.296875 -7.796875 C 33.429688 -7.796875 36.28125 -8.578125 38.84375 -10.140625 C 41.414062 -11.710938 43.453125 -13.898438 44.953125 -16.703125 C 46.453125 -19.503906 47.203125 -22.671875 47.203125 -26.203125 Z M 47.203125 -26.203125 "/></g></g></g><g fill="#000000" fill-opacity="1"><g transform="translate(256.291773, 188.249988)"><g><path d="M 49.90625 -8.296875 C 50.90625 -7.234375 51.40625 -6.066406 51.40625 -4.796875 C 51.40625 -3.460938 50.882812 -2.34375 49.84375 -1.4375 C 48.8125 -0.539062 47.726562 -0.09375 46.59375 -0.09375 C 45.132812 -0.09375 43.96875 -0.628906 43.09375 -1.703125 L 23.40625 -22.59375 L 17.40625 -17.203125 L 17.40625 -4.796875 C 17.40625 -3.460938 16.953125 -2.328125 16.046875 -1.390625 C 15.148438 -0.460938 14.035156 0 12.703125 0 C 11.296875 0 10.144531 -0.460938 9.25 -1.390625 C 8.351562 -2.328125 7.90625 -3.460938 7.90625 -4.796875 L 7.90625 -69.203125 C 7.90625 -70.535156 8.351562 -71.664062 9.25 -72.59375 C 10.144531 -73.53125 11.296875 -74 12.703125 -74 C 14.035156 -74 15.148438 -73.53125 16.046875 -72.59375 C 16.953125 -71.664062 17.40625 -70.535156 17.40625 -69.203125 L 17.40625 -28.59375 L 41.90625 -51.09375 C 43.03125 -52.09375 44.195312 -52.59375 45.40625 -52.59375 C 46.53125 -52.59375 47.5625 -52.109375 48.5 -51.140625 C 49.4375 -50.179688 49.90625 -49.164062 49.90625 -48.09375 C 49.90625 -46.757812 49.269531 -45.5625 48 -44.5 L 30.703125 -29.09375 Z M 49.90625 -8.296875 "/></g></g></g><g fill="#000000" fill-opacity="1"><g transform="translate(83.097655, 259.499983)"><g><path d="M 29.90625 -53.59375 C 35.164062 -53.59375 39.546875 -52.757812 43.046875 -51.09375 C 46.546875 -49.425781 48.296875 -47.296875 48.296875 -44.703125 C 48.296875 -43.566406 47.925781 -42.546875 47.1875 -41.640625 C 46.457031 -40.742188 45.53125 -40.296875 44.40625 -40.296875 C 43.53125 -40.296875 42.84375 -40.425781 42.34375 -40.6875 C 41.84375 -40.957031 41.160156 -41.394531 40.296875 -42 C 39.898438 -42.394531 39.269531 -42.863281 38.40625 -43.40625 C 37.601562 -43.800781 36.46875 -44.128906 35 -44.390625 C 33.53125 -44.660156 32.195312 -44.796875 31 -44.796875 C 27.53125 -44.796875 24.460938 -43.992188 21.796875 -42.390625 C 19.128906 -40.796875 17.0625 -38.582031 15.59375 -35.75 C 14.132812 -32.914062 13.40625 -29.765625 13.40625 -26.296875 C 13.40625 -22.765625 14.117188 -19.597656 15.546875 -16.796875 C 16.984375 -13.992188 19 -11.789062 21.59375 -10.1875 C 24.195312 -8.59375 27.164062 -7.796875 30.5 -7.796875 C 33.96875 -7.796875 36.769531 -8.332031 38.90625 -9.40625 C 39.363281 -9.664062 39.992188 -10.097656 40.796875 -10.703125 C 41.460938 -11.234375 42.046875 -11.628906 42.546875 -11.890625 C 43.046875 -12.160156 43.664062 -12.296875 44.40625 -12.296875 C 45.738281 -12.296875 46.785156 -11.878906 47.546875 -11.046875 C 48.316406 -10.210938 48.703125 -9.128906 48.703125 -7.796875 C 48.703125 -6.398438 47.816406 -5.015625 46.046875 -3.640625 C 44.285156 -2.273438 41.921875 -1.160156 38.953125 -0.296875 C 35.984375 0.566406 32.800781 1 29.40625 1 C 24.332031 1 19.863281 -0.179688 16 -2.546875 C 12.132812 -4.910156 9.148438 -8.175781 7.046875 -12.34375 C 4.953125 -16.507812 3.90625 -21.160156 3.90625 -26.296875 C 3.90625 -31.429688 5.003906 -36.082031 7.203125 -40.25 C 9.398438 -44.414062 12.460938 -47.679688 16.390625 -50.046875 C 20.328125 -52.410156 24.832031 -53.59375 29.90625 -53.59375 Z M 29.90625 -53.59375 "/></g></g></g><g fill="#000000" fill-opacity="1"><g transform="translate(134.495678, 259.499983)"><g><path d="M 49.59375 -53.09375 C 51 -53.09375 52.148438 -52.644531 53.046875 -51.75 C 53.953125 -50.851562 54.40625 -49.671875 54.40625 -48.203125 L 54.40625 -4.796875 C 54.40625 -3.460938 53.953125 -2.328125 53.046875 -1.390625 C 52.148438 -0.460938 51 0 49.59375 0 C 48.195312 0 47.066406 -0.445312 46.203125 -1.34375 C 45.335938 -2.25 44.90625 -3.398438 44.90625 -4.796875 L 44.90625 -7.40625 C 43.164062 -5.070312 40.796875 -3.085938 37.796875 -1.453125 C 34.796875 0.179688 31.5625 1 28.09375 1 C 23.5625 1 19.445312 -0.164062 15.75 -2.5 C 12.050781 -4.832031 9.148438 -8.082031 7.046875 -12.25 C 4.953125 -16.414062 3.90625 -21.097656 3.90625 -26.296875 C 3.90625 -31.492188 4.953125 -36.175781 7.046875 -40.34375 C 9.148438 -44.507812 12.035156 -47.757812 15.703125 -50.09375 C 19.367188 -52.425781 23.398438 -53.59375 27.796875 -53.59375 C 31.328125 -53.59375 34.609375 -52.859375 37.640625 -51.390625 C 40.679688 -49.929688 43.101562 -48.066406 44.90625 -45.796875 L 44.90625 -48.203125 C 44.90625 -49.597656 45.335938 -50.757812 46.203125 -51.6875 C 47.066406 -52.625 48.195312 -53.09375 49.59375 -53.09375 Z M 29.203125 -7.796875 C 32.335938 -7.796875 35.117188 -8.59375 37.546875 -10.1875 C 39.984375 -11.789062 41.882812 -13.992188 43.25 -16.796875 C 44.613281 -19.597656 45.296875 -22.765625 45.296875 -26.296875 C 45.296875 -29.765625 44.613281 -32.898438 43.25 -35.703125 C 41.882812 -38.503906 39.984375 -40.71875 37.546875 -42.34375 C 35.117188 -43.976562 32.335938 -44.796875 29.203125 -44.796875 C 26.066406 -44.796875 23.28125 -43.992188 20.84375 -42.390625 C 18.414062 -40.796875 16.515625 -38.597656 15.140625 -35.796875 C 13.773438 -32.992188 13.09375 -29.828125 13.09375 -26.296875 C 13.09375 -22.765625 13.773438 -19.597656 15.140625 -16.796875 C 16.515625 -13.992188 18.414062 -11.789062 20.84375 -10.1875 C 23.28125 -8.59375 26.066406 -7.796875 29.203125 -7.796875 Z M 29.203125 -7.796875 "/></g></g></g><g fill="#000000" fill-opacity="1"><g transform="translate(195.893306, 259.499983)"><g><path d="M 29.5 -65.40625 C 27.300781 -65.40625 25.679688 -64.738281 24.640625 -63.40625 C 23.609375 -62.070312 23.09375 -60.4375 23.09375 -58.5 L 23.09375 -51.5 L 33 -51.5 C 34.332031 -51.5 35.414062 -51.082031 36.25 -50.25 C 37.082031 -49.414062 37.5 -48.363281 37.5 -47.09375 C 37.5 -45.832031 37.082031 -44.800781 36.25 -44 C 35.414062 -43.195312 34.332031 -42.796875 33 -42.796875 L 23.09375 -42.796875 L 23.09375 -4.796875 C 23.09375 -3.460938 22.644531 -2.328125 21.75 -1.390625 C 20.851562 -0.460938 19.703125 0 18.296875 0 C 16.960938 0 15.84375 -0.460938 14.9375 -1.390625 C 14.039062 -2.328125 13.59375 -3.460938 13.59375 -4.796875 L 13.59375 -42.796875 L 7.40625 -42.796875 C 6.132812 -42.796875 5.066406 -43.195312 4.203125 -44 C 3.335938 -44.800781 2.90625 -45.832031 2.90625 -47.09375 C 2.90625 -48.363281 3.335938 -49.414062 4.203125 -50.25 C 5.066406 -51.082031 6.132812 -51.5 7.40625 -51.5 L 13.59375 -51.5 L 13.59375 -58.5 C 13.59375 -63.164062 15.09375 -66.878906 18.09375 -69.640625 C 21.09375 -72.410156 25.328125 -73.796875 30.796875 -73.796875 C 33.066406 -73.796875 35.066406 -73.378906 36.796875 -72.546875 C 38.535156 -71.710938 39.40625 -70.460938 39.40625 -68.796875 C 39.40625 -67.535156 39.019531 -66.488281 38.25 -65.65625 C 37.476562 -64.820312 36.5625 -64.40625 35.5 -64.40625 C 35.226562 -64.40625 34.492188 -64.535156 33.296875 -64.796875 C 31.828125 -65.203125 30.5625 -65.40625 29.5 -65.40625 Z M 29.5 -65.40625 "/></g></g></g><g fill="#000000" fill-opacity="1"><g transform="translate(234.891804, 259.499983)"><g><path d="M 53.09375 -28.203125 C 53.03125 -27.003906 52.53125 -25.988281 51.59375 -25.15625 C 50.664062 -24.320312 49.566406 -23.90625 48.296875 -23.90625 L 13.09375 -23.90625 C 13.5625 -19.03125 15.410156 -15.125 18.640625 -12.1875 C 21.878906 -9.257812 25.832031 -7.796875 30.5 -7.796875 C 33.695312 -7.796875 36.296875 -8.257812 38.296875 -9.1875 C 40.296875 -10.125 42.0625 -11.328125 43.59375 -12.796875 C 44.59375 -13.398438 45.5625 -13.703125 46.5 -13.703125 C 47.632812 -13.703125 48.582031 -13.300781 49.34375 -12.5 C 50.113281 -11.695312 50.5 -10.765625 50.5 -9.703125 C 50.5 -8.296875 49.832031 -7.03125 48.5 -5.90625 C 46.5625 -3.96875 43.992188 -2.332031 40.796875 -1 C 37.597656 0.332031 34.332031 1 31 1 C 25.601562 1 20.851562 -0.128906 16.75 -2.390625 C 12.644531 -4.660156 9.476562 -7.828125 7.25 -11.890625 C 5.019531 -15.960938 3.90625 -20.566406 3.90625 -25.703125 C 3.90625 -31.296875 5.050781 -36.207031 7.34375 -40.4375 C 9.644531 -44.675781 12.675781 -47.925781 16.4375 -50.1875 C 20.207031 -52.457031 24.257812 -53.59375 28.59375 -53.59375 C 32.863281 -53.59375 36.863281 -52.492188 40.59375 -50.296875 C 44.332031 -48.097656 47.332031 -45.066406 49.59375 -41.203125 C 51.863281 -37.335938 53.03125 -33.003906 53.09375 -28.203125 Z M 28.59375 -44.796875 C 24.863281 -44.796875 21.628906 -43.742188 18.890625 -41.640625 C 16.160156 -39.546875 14.363281 -36.300781 13.5 -31.90625 L 43 -31.90625 L 43 -32.703125 C 42.664062 -36.234375 41.082031 -39.128906 38.25 -41.390625 C 35.414062 -43.660156 32.195312 -44.796875 28.59375 -44.796875 Z M 28.59375 -44.796875 "/></g></g></g></svg>